<svg xmlns="http://www.w3.org/2000/svg" width="320.117" height="84.523" viewBox="0 0 320.117 84.523"><defs><style>.a{fill:#3e3e3d;}.b{fill:#238cce;}.c{fill:#4f7eaa;}.d{fill:#5e9f40;}.e{fill:#dbdb12;}</style></defs><g transform="translate(-120.648 -0.18)"><g transform="translate(229.949 4.161)"><g transform="translate(0 21.207)"><path class="a" d="M475.388,99.008H462.1v-15.7q0-3.594-1.944-4.242v-.648h7.275V95.3h7.953Z" transform="translate(-460.16 -78.419)"></path><path class="a" d="M516.109,99.008h-5.332v-15.7q0-3.594-1.944-4.271v-.618h7.275Z" transform="translate(-493.164 -78.419)"></path><path class="a" d="M557.762,92.97a5.607,5.607,0,0,1-1.8,4.123,7.271,7.271,0,0,1-5.243,1.915h-9.661v-15.7q0-3.594-1.944-4.242v-.648h10.81a6.676,6.676,0,0,1,4.978,1.738,4.95,4.95,0,0,1,1.443,3.652,4.517,4.517,0,0,1-.677,2.46,4.076,4.076,0,0,1-1.767,1.576A4.846,4.846,0,0,1,557.762,92.97Zm-6.48-8.719a2.678,2.678,0,0,0-.469-1.561,2.559,2.559,0,0,0-2.225-.972H546.51v5.067h2.078a2.559,2.559,0,0,0,2.225-.972A2.679,2.679,0,0,0,551.282,84.251Zm1.09,8.513a2.977,2.977,0,0,0-.557-1.8,3.238,3.238,0,0,0-2.755-1.119h-2.55V95.68h2.55a3.2,3.2,0,0,0,2.755-1.149A2.846,2.846,0,0,0,552.372,92.764Z" transform="translate(-513.698 -78.419)"></path><path class="a" d="M615.578,99.008h-13.49v-15.7q0-3.594-1.944-4.242v-.648h15.2V82.13h-7.924v4.625h7.659v3.623h-7.659V95.3h8.159Z" transform="translate(-555.077 -78.419)"></path><path class="a" d="M674.563,99.008h-5.675L666.4,94.74a15.107,15.107,0,0,0-2.59-3.6,2.418,2.418,0,0,0-1.59-.56h-.912v8.424h-5.331v-15.7q0-3.594-1.944-4.242v-.648h10.221a7.376,7.376,0,0,1,5.008,1.635,5.567,5.567,0,0,1,1.885,4.433,5.05,5.05,0,0,1-.839,2.8,4.847,4.847,0,0,1-2.254,1.885A13.537,13.537,0,0,1,671,92.941l.707,1.149Zm-8.807-14.374a2.553,2.553,0,0,0-.766-1.973,3.007,3.007,0,0,0-2.121-.707h-1.561v5.331h1.561a3.007,3.007,0,0,0,2.121-.707A2.515,2.515,0,0,0,665.756,84.634Z" transform="translate(-591.618 -78.419)"></path><path class="a" d="M738.789,88.7a10.248,10.248,0,0,1-2.592,7.157,10.063,10.063,0,0,1-7.806,3.152h-9.1v-15.7q0-3.594-1.944-4.242v-.648h11.046a10.055,10.055,0,0,1,7.806,3.122A10.25,10.25,0,0,1,738.789,88.7Zm-5.685,0a6.773,6.773,0,0,0-1.384-4.448,6.028,6.028,0,0,0-5.007-2.062h-2.091V95.12h2.091a6.067,6.067,0,0,0,5.007-2.032A6.676,6.676,0,0,0,733.1,88.7Z" transform="translate(-634.549 -78.419)"></path><path class="a" d="M806.956,99.008h-5.8l-1.693-4.418h-7.977L789.9,99.008h-5.122L793,78.419h5.478Zm-8.827-7.894-2.289-5.945a10.766,10.766,0,0,1-.436-1.743h-.058a10.882,10.882,0,0,1-.436,1.737l-2.15,5.95Z" transform="translate(-680.271 -78.419)"></path><path class="a" d="M875.024,88.7a10.251,10.251,0,0,1-2.592,7.157,10.063,10.063,0,0,1-7.806,3.152h-9.1v-15.7q0-3.594-1.944-4.242v-.648h11.046a10.056,10.056,0,0,1,7.806,3.122A10.253,10.253,0,0,1,875.024,88.7Zm-5.685,0a6.771,6.771,0,0,0-1.384-4.448,6.028,6.028,0,0,0-5.007-2.062h-2.091V95.12h2.091a6.067,6.067,0,0,0,5.007-2.032A6.675,6.675,0,0,0,869.339,88.7Z" transform="translate(-726.924 -78.419)"></path><path class="a" d="M938.915,99.008h-13.49v-15.7q0-3.594-1.945-4.242v-.648h15.2V82.13h-7.923v4.625h7.658v3.623h-7.658V95.3h8.159Z" transform="translate(-774.321 -78.419)"></path><path class="a" d="M477.44,200.495H462.526V183.138q0-3.972-2.149-4.689v-.716h16.8v4.1h-8.76v5.112h8.467v4.005H468.42v5.438h9.02Z" transform="translate(-460.307 -145.76)"></path><path class="a" d="M541.522,198.059a12.125,12.125,0,0,1-7.1,1.856,13.665,13.665,0,0,1-9.345-3.224,11.938,11.938,0,0,1,0-17.487,13.752,13.752,0,0,1,9.345-3.191,12.288,12.288,0,0,1,7.1,1.823v4.852a8.978,8.978,0,0,0-6.22-2.247,7.8,7.8,0,0,0-5.568,2.084,7.764,7.764,0,0,0,0,10.86,7.769,7.769,0,0,0,5.568,2.1,8.978,8.978,0,0,0,6.22-2.247Z" transform="translate(-501.595 -144.594)"></path><path class="a" d="M617.481,187.894a11.482,11.482,0,0,1-3.159,8.174q-3.615,3.809-9.932,3.81a13.1,13.1,0,0,1-9.28-3.387,11.937,11.937,0,0,1,.016-17.193,14.714,14.714,0,0,1,18.724-.049A11.205,11.205,0,0,1,617.481,187.894Zm-6.317,0a7.731,7.731,0,0,0-1.856-5.34,6.691,6.691,0,0,0-9.7,0,8.5,8.5,0,0,0,.033,10.648,6.616,6.616,0,0,0,9.671.033A7.728,7.728,0,0,0,611.164,187.894Z" transform="translate(-549.192 -144.525)"></path><path class="a" d="M700.151,200.495H695.47l-11.763-13.979v13.979H678.17V183.138q0-3.972-2.149-4.689v-.716h7.359l11.234,13.35v-13.35h5.536Z" transform="translate(-606.528 -145.76)"></path><path class="a" d="M786.6,174.932a11.484,11.484,0,0,1-3.158,8.174q-3.615,3.809-9.932,3.81a13.1,13.1,0,0,1-9.28-3.387,11.937,11.937,0,0,1,.016-17.193,14.714,14.714,0,0,1,18.724-.049A11.205,11.205,0,0,1,786.6,174.932Zm-6.317,0a7.731,7.731,0,0,0-1.856-5.34,6.69,6.69,0,0,0-9.7,0,8.506,8.506,0,0,0,.033,10.648,6.616,6.616,0,0,0,9.671.033A7.729,7.729,0,0,0,780.282,174.932Zm-1.5-12.732H775.5l-2.084-2.149-1.954,2.149h-3.224l3.907-5.406h2.605Z" transform="translate(-663.865 -131.562)"></path><path class="a" d="M872.233,200.495h-5.666V186.655l-5.959,8.3-1.791-.033-5.862-8.141v13.709h-5.666V183.138q0-3.972-2.149-4.689v-.716h7.637l7.183,9.7,7.079-9.7h5.194Z" transform="translate(-721.201 -145.76)"></path><path class="a" d="M945.833,200.495h-5.894V183.138q0-3.972-2.149-4.721v-.684h8.043Z" transform="translate(-784.024 -145.76)"></path><path class="a" d="M992.736,198.059a12.123,12.123,0,0,1-7.1,1.856,13.666,13.666,0,0,1-9.346-3.224,11.937,11.937,0,0,1,0-17.487,13.753,13.753,0,0,1,9.346-3.191,12.285,12.285,0,0,1,7.1,1.823v4.852a8.976,8.976,0,0,0-6.219-2.247,7.806,7.806,0,0,0-5.569,2.084,7.765,7.765,0,0,0,0,10.86,7.77,7.77,0,0,0,5.569,2.1,8.976,8.976,0,0,0,6.219-2.247Z" transform="translate(-807.547 -144.594)"></path><path class="a" d="M1063.355,200.495h-6.409l-1.872-4.884h-8.819l-1.757,4.884h-5.661l9.085-22.762h6.057Zm-9.758-8.727-2.531-6.572a11.917,11.917,0,0,1-.482-1.927h-.064a12.165,12.165,0,0,1-.482,1.921l-2.377,6.578Z" transform="translate(-852.539 -145.76)"></path></g><g transform="translate(0.226)"><path class="b" d="M467.649,21.215h-3.944v2.7h3.8v1.493h-3.8V29.8h-2.03V22a4.981,4.981,0,0,0-.1-1.2,1.138,1.138,0,0,0-.71-.885v-.247h6.786Z" transform="translate(-460.863 -17.372)"></path><path class="b" d="M512.128,25.724a4.223,4.223,0,0,1-1.2,3.277,5.233,5.233,0,0,1-6.235,0,4.222,4.222,0,0,1-1.2-3.277V21.983a5.007,5.007,0,0,0-.1-1.2,1.105,1.105,0,0,0-.723-.87v-.247h2.857v6.221a2.652,2.652,0,0,0,.582,1.827,2.6,2.6,0,0,0,3.448,0,2.652,2.652,0,0,0,.581-1.827V19.663h2Z" transform="translate(-489.204 -17.372)"></path><path class="b" d="M565.087,29.8h-1.77l-5.6-6.814V29.8h-1.957V22a4.983,4.983,0,0,0-.1-1.2,1.138,1.138,0,0,0-.71-.885v-.247h2.682l5.5,6.648V19.663h1.958Z" transform="translate(-524.661 -17.372)"></path><path class="b" d="M619.411,24.738a4.863,4.863,0,0,1-1.349,3.451,5.38,5.38,0,0,1-4.1,1.609h-3.7V22a4.985,4.985,0,0,0-.1-1.2,1.108,1.108,0,0,0-.71-.885v-.247h4.509a5.357,5.357,0,0,1,4.1,1.624A4.863,4.863,0,0,1,619.411,24.738Zm-2.248-.007a3.377,3.377,0,0,0-3.694-3.531h-1.178v7.018h1.178a3.6,3.6,0,0,0,2.88-1.129A3.477,3.477,0,0,0,617.163,24.731Z" transform="translate(-561.614 -17.372)"></path><path class="b" d="M667.94,29.8h-2.269l-1.013-2.422h-4.047l-.948,2.422h-1.975l4.162-10.136h1.783Zm-3.9-3.872-1.176-2.915a5.239,5.239,0,0,1-.29-.985,7.379,7.379,0,0,1-.29.986l-1.1,2.914Z" transform="translate(-594.323 -17.372)"></path><path class="b" d="M715.875,28.685a5.582,5.582,0,0,1-2.886.8l-.2.551a.846.846,0,0,1,.551.2.783.783,0,0,1,.29.624v.029a1.155,1.155,0,0,1-.58,1.044,1.783,1.783,0,0,1-.9.232,1.925,1.925,0,0,1-.841-.174v-.9a1.128,1.128,0,0,0,.638.217H712q.493,0,.493-.29v-.029q0-.275-.536-.275a3.136,3.136,0,0,0-.421.029l.435-1.276a5.664,5.664,0,0,1-3.69-1.653,4.984,4.984,0,0,1-1.414-3.625,4.939,4.939,0,0,1,1.617-3.806,6.67,6.67,0,0,1,7.388-.674v1.957a4.922,4.922,0,0,0-3.248-1.16,3.315,3.315,0,0,0-2.545,1.053A3.724,3.724,0,0,0,709.1,24.2a3.743,3.743,0,0,0,.979,2.651,3.313,3.313,0,0,0,2.545,1.053,4.884,4.884,0,0,0,3.248-1.174Z" transform="translate(-627.671 -16.853)"></path><path class="b" d="M764.279,24.974H762.01L761,22.552H756.95L756,24.974h-1.975l4.162-10.136h1.783Zm-3.03-12.251q0,1.463-1.247,1.463a3.922,3.922,0,0,1-1.145-.29,2.117,2.117,0,0,0-.537-.146q-.319,0-.319.406v.029h-.74v-.159q0-1.48,1.233-1.479a2.765,2.765,0,0,1,.921.218,2.761,2.761,0,0,0,.79.218q.3,0,.3-.435h.725A1.123,1.123,0,0,1,761.248,12.723Zm-.867,8.379-1.176-2.915a5.275,5.275,0,0,1-.29-.985,7.388,7.388,0,0,1-.29.986l-1.1,2.914Z" transform="translate(-659.647 -12.547)"></path><path class="b" d="M815.6,24.236a5.085,5.085,0,0,1-1.421,3.639,6.259,6.259,0,0,1-8.337.152,5.01,5.01,0,0,1-1.6-3.791,4.979,4.979,0,0,1,1.6-3.785,6.3,6.3,0,0,1,8.163-.014A4.989,4.989,0,0,1,815.6,24.236Zm-2.233.007a3.776,3.776,0,0,0-.971-2.67,3.446,3.446,0,0,0-4.952,0,3.792,3.792,0,0,0-.964,2.67,3.772,3.772,0,0,0,.979,2.655,3.412,3.412,0,0,0,4.937.014A3.776,3.776,0,0,0,813.368,24.243Z" transform="translate(-693.699 -16.884)"></path><path class="b" d="M897.8,24.738a4.863,4.863,0,0,1-1.348,3.451,5.381,5.381,0,0,1-4.1,1.609h-3.7V22a4.98,4.98,0,0,0-.1-1.2,1.108,1.108,0,0,0-.71-.885v-.247h4.509a5.358,5.358,0,0,1,4.1,1.624A4.863,4.863,0,0,1,897.8,24.738Zm-2.247-.007a3.378,3.378,0,0,0-3.694-3.531h-1.178v7.018h1.178a3.6,3.6,0,0,0,2.88-1.129A3.475,3.475,0,0,0,895.555,24.731Z" transform="translate(-750.381 -17.372)"></path><path class="b" d="M946.33,29.8h-2.269l-1.013-2.422H939l-.947,2.422h-1.975l4.162-10.136h1.783Zm-3.9-3.872-1.176-2.915a5.261,5.261,0,0,1-.29-.985,7.325,7.325,0,0,1-.291.986l-1.1,2.914Z" transform="translate(-783.089 -17.372)"></path></g></g><g transform="translate(120.648 0.18)"><rect class="c" width="6.959" height="77.489" transform="matrix(0.947, 0.32, -0.32, 0.947, 57.913, 4.63)"></rect><rect class="d" width="6.959" height="30.435" transform="matrix(-0.947, -0.32, 0.32, -0.947, 88.055, 71.346)"></rect><rect class="d" width="6.959" height="77.489" transform="matrix(0.947, 0.32, -0.32, 0.947, 44.372, 0)"></rect><rect class="d" width="6.959" height="30.435" transform="matrix(0.947, 0.32, -0.32, 0.947, 9.74, 13.113)"></rect><rect class="d" width="6.959" height="51.417" transform="matrix(0.947, 0.32, -0.32, 0.947, 26.649, 7.762)"></rect><rect class="d" width="6.959" height="77.489" transform="matrix(-0.947, -0.32, 0.32, -0.947, 53.422, 84.459)"></rect><rect class="d" width="6.959" height="51.417" transform="matrix(-0.947, -0.32, 0.32, -0.947, 71.146, 76.697)"></rect><path class="e" d="M127.242,60.624,120.648,58.4l26.666-34.221,6.594,2.225Z" transform="translate(-120.648 -16.451)"></path><path class="e" d="M158.08,58.823,151.486,56.6,185.964.232l6.594,2.225Z" transform="translate(-141.558 -0.215)"></path><path class="e" d="M188.207,85.723,181.613,83.5l38.27-68.863,6.594,2.225Z" transform="translate(-161.986 -9.981)"></path><path class="e" d="M273.671,138.952l-6.594-2.225,33.863-56.54,6.512,2.077Z" transform="translate(-219.936 -54.43)"></path><path class="e" d="M229.5,98.453l-6.746-2.194,38.731-69.377,6.594,2.225Z" transform="translate(-189.881 -18.286)"></path><path class="e" d="M327.681,161.861l-6.443-2.361,26.6-34.3,6.594,2.225Z" transform="translate(-256.661 -84.953)"></path></g></g></svg>